<?xml version="1.0" standalone="no"?>
<!DOCTYPE svg PUBLIC "-//W3C//DTD SVG 20010904//EN"
 "http://www.w3.org/TR/2001/REC-SVG-20010904/DTD/svg10.dtd">
<svg version="1.0" xmlns="http://www.w3.org/2000/svg"
 width="740.000000pt" height="1044.000000pt" viewBox="0 0 740.000000 1044.000000"
 preserveAspectRatio="xMidYMid meet">

<g transform="translate(0.000000,1044.000000) scale(0.100000,-0.100000)"
fill="#000000" stroke="none">
<path d="M2030 9867 c0 -17 29 -57 40 -57 5 0 2 16 -8 35 -17 35 -32 45 -32
22z"/>
<path d="M2101 9794 c0 -11 3 -14 6 -6 3 7 2 16 -1 19 -3 4 -6 -2 -5 -13z"/>
<path d="M4705 9609 c-12 -19 3 -22 27 -5 l22 16 -21 0 c-12 0 -25 -5 -28 -11z"/>
<path d="M2356 9599 c3 -5 24 -19 46 -30 33 -17 42 -18 49 -8 10 17 -4 25 -59
38 -25 5 -40 5 -36 0z"/>
<path d="M3560 9530 c0 -5 7 -10 15 -10 8 0 15 5 15 10 0 6 -7 10 -15 10 -8 0
-15 -4 -15 -10z"/>
<path d="M2597 9465 c42 -23 44 -23 89 -8 25 8 44 16 42 18 -2 1 -41 5 -88 8
l-85 7 42 -25z"/>
<path d="M4081 9435 c8 -7 233 -54 238 -49 12 11 -24 28 -86 40 -67 13 -161
19 -152 9z"/>
<path d="M2730 9404 c0 -1 15 -11 33 -22 27 -17 45 -19 122 -14 54 3 82 8 70
12 -29 10 -225 31 -225 24z"/>
<path d="M3576 9310 c-15 -5 -53 -7 -84 -6 -31 2 -63 0 -72 -4 -8 -5 -31 -13
-50 -19 -33 -10 -32 -10 15 -5 28 2 92 6 143 8 50 2 92 7 92 10 0 3 0 11 0 16
0 11 -4 11 -44 0z"/>
<path d="M3636 9311 c-10 -16 18 -28 74 -34 30 -2 149 -21 264 -41 l208 -36
34 21 c42 25 43 30 5 23 -16 -4 -62 -1 -102 6 -40 7 -109 13 -153 15 -84 2
-144 12 -161 25 -5 5 -41 11 -78 14 -38 3 -73 8 -77 11 -5 3 -11 1 -14 -4z"/>
<path d="M2980 9291 l-24 -7 33 -23 c31 -22 38 -23 134 -16 56 4 122 11 147
15 43 7 42 8 -23 9 -38 0 -76 5 -85 10 -23 11 -151 20 -182 12z"/>
<path d="M3138 9153 c13 -10 35 -28 50 -40 l27 -23 -31 6 c-24 5 -37 1 -53
-15 -12 -12 -21 -25 -21 -31 0 -5 11 2 24 15 28 28 58 24 94 -11 13 -13 29
-21 36 -18 8 3 16 -1 19 -9 3 -8 16 -15 29 -15 13 0 61 -7 106 -17 46 -9 87
-14 90 -10 16 16 -54 54 -112 63 l-61 8 76 8 c42 5 110 6 150 2 41 -3 151 -5
246 -6 l172 0 -14 -27 c-8 -15 -12 -30 -8 -33 3 -3 8 1 11 9 8 24 41 51 62 51
12 0 32 -11 45 -25 14 -13 25 -20 25 -15 0 16 -53 50 -79 50 l-26 1 23 19 c24
20 23 20 -190 15 -117 -3 -258 -6 -313 -6 -116 -1 -329 31 -371 56 -29 17 -29
17 -6 -2z m113 -100 c13 -16 12 -17 -3 -4 -10 7 -18 15 -18 17 0 8 8 3 21 -13z"/>
<path d="M3142 9058 c-17 -17 -15 -32 8 -53 11 -10 20 -23 20 -29 1 -6 14 -27
30 -46 l30 -34 0 37 c0 32 -5 41 -34 58 -35 21 -51 44 -40 61 3 5 12 7 20 4 8
-3 14 -1 14 4 0 14 -34 12 -48 -2z"/>
<path d="M4002 9028 c-7 -7 -12 -21 -11 -32 0 -20 1 -20 11 2 18 36 50 24 60
-23 5 -18 6 -19 13 -2 9 22 -19 67 -43 67 -10 0 -23 -5 -30 -12z"/>
<path d="M3883 9023 c9 -2 25 -2 35 0 9 3 1 5 -18 5 -19 0 -27 -2 -17 -5z"/>
<path d="M3728 9008 c-32 -6 -58 -13 -58 -17 0 -8 105 4 160 18 l35 9 -40 0
c-22 0 -66 -5 -97 -10z"/>
<path d="M3805 8960 c3 -5 8 -10 11 -10 2 0 4 5 4 10 0 6 -5 10 -11 10 -5 0
-7 -4 -4 -10z"/>
<path d="M4077 8950 c-9 -11 -13 -20 -8 -20 11 0 35 29 29 35 -2 2 -12 -4 -21
-15z"/>
<path d="M3390 8946 c0 -7 24 -28 53 -47 52 -34 53 -34 142 -29 82 5 88 6 66
19 -15 8 -26 10 -30 3 -9 -16 -129 -18 -144 -3 -6 7 -7 12 -2 11 25 -5 55 1
55 10 0 6 -6 10 -12 9 -7 -1 -33 -1 -56 0 -35 1 -45 5 -49 21 -6 23 -23 27
-23 6z"/>
<path d="M3435 8940 c3 -5 8 -10 11 -10 2 0 4 5 4 10 0 6 -5 10 -11 10 -5 0
-7 -4 -4 -10z"/>
<path d="M3723 8937 c0 -9 9 -12 26 -9 23 5 24 6 6 13 -29 11 -32 11 -32 -4z"/>
<path d="M3967 8935 c-4 -8 -2 -17 3 -20 6 -4 10 -4 10 -1 0 2 3 11 6 20 3 9
2 16 -4 16 -5 0 -12 -7 -15 -15z"/>
<path d="M3955 8860 c-10 -11 -13 -20 -7 -20 6 0 16 9 22 20 6 11 9 20 7 20
-2 0 -12 -9 -22 -20z"/>
<path d="M3575 8790 c3 -5 8 -10 11 -10 2 0 4 5 4 10 0 6 -5 10 -11 10 -5 0
-7 -4 -4 -10z"/>
<path d="M3905 8673 c-16 -9 -25 -18 -18 -20 6 -2 29 5 50 16 27 14 32 20 18
20 -11 0 -33 -7 -50 -16z"/>
<path d="M6130 6815 c-5 -14 -10 -42 -10 -60 0 -24 -6 -38 -20 -45 -22 -12
-27 -31 -7 -27 6 1 14 5 17 9 3 4 17 8 30 10 14 2 31 7 38 11 26 17 6 114 -25
125 -7 2 -17 -8 -23 -23z"/>
<path d="M1136 6731 c-8 -12 10 -41 25 -41 13 0 11 13 -4 35 -10 13 -16 15
-21 6z"/>
<path d="M1150 6674 c0 -5 7 -19 15 -30 8 -10 15 -14 15 -8 0 5 -7 19 -15 30
-8 10 -15 14 -15 8z"/>
<path d="M1160 6579 c0 -11 5 -17 10 -14 6 3 10 13 10 21 0 8 -4 14 -10 14 -5
0 -10 -9 -10 -21z"/>
<path d="M6060 6573 c-7 -16 -19 -40 -26 -55 -8 -14 -14 -33 -14 -42 0 -9 -4
-16 -10 -16 -21 0 -9 -38 17 -55 43 -29 76 -11 84 45 4 25 8 52 9 60 7 43 0
60 -22 57 -17 -1 -22 3 -20 16 4 25 -3 21 -18 -10z"/>
<path d="M5941 6268 c-6 -35 -14 -99 -16 -143 l-5 -80 14 45 c8 25 21 65 30
89 9 24 13 48 9 54 -4 6 -6 30 -4 54 4 65 -15 52 -28 -19z"/>
<path d="M1090 6273 c-1 -21 -7 -65 -16 -98 -8 -33 -17 -94 -19 -136 -4 -65
-1 -87 21 -145 32 -86 43 -142 53 -274 9 -113 21 -146 71 -200 17 -18 35 -40
40 -49 7 -11 9 77 8 266 l-3 281 -27 22 c-21 16 -28 30 -28 55 0 19 -5 37 -10
40 -7 4 -7 12 0 25 5 10 7 25 4 33 -3 10 2 18 16 22 29 9 43 51 35 103 -6 43
-7 44 -40 38 -23 -5 -38 -2 -48 9 -9 8 -20 15 -26 15 -6 0 -11 7 -11 15 0 8
-4 15 -10 15 -5 0 -10 -17 -10 -37z"/>
<path d="M5859 5508 c0 -24 -2 -61 -4 -83 -8 -82 -13 -498 -6 -523 l7 -27 37
39 c19 22 44 58 54 80 10 23 23 46 29 53 6 6 21 66 34 133 26 140 24 223 -5
258 -23 26 -35 28 -35 7 0 -8 -5 -15 -11 -15 -5 0 -7 -4 -4 -10 3 -5 3 -10 -2
-10 -11 0 -48 58 -63 103 -18 49 -30 47 -31 -5z"/>
<path d="M1240 4449 c0 -20 -6 -51 -13 -69 -17 -38 -7 -104 17 -128 16 -16 17
-10 14 96 -1 62 -6 118 -10 125 -4 7 -8 -3 -8 -24z"/>
<path d="M1262 3642 c-1 -7 -8 -12 -15 -10 -17 4 -107 -85 -107 -106 0 -9 -6
-19 -12 -21 -20 -8 -22 -102 -4 -121 9 -8 16 -28 16 -44 0 -39 9 -60 28 -60
13 0 12 -3 -3 -20 -17 -19 -17 -20 -2 -14 19 7 52 62 43 72 -3 3 -2 10 3 16
13 16 17 49 8 64 -14 21 -47 14 -47 -10 -1 -22 -2 -22 -25 6 -13 17 -22 33
-19 37 5 9 45 6 63 -6 11 -6 13 -1 9 25 -4 23 0 34 11 38 39 15 63 66 58 123
-2 24 -4 38 -5 31z"/>
<path d="M6175 2602 c3 -7 5 -21 5 -30 0 -12 3 -13 8 -5 5 8 13 9 22 3 10 -7
11 -10 3 -10 -7 0 -13 -10 -13 -21 0 -17 3 -19 13 -10 8 6 17 8 20 4 13 -12 7
17 -10 51 -11 21 -25 34 -36 33 -10 -1 -15 -7 -12 -15z"/>
<path d="M6240 2455 c0 -8 4 -15 10 -15 5 0 7 7 4 15 -4 8 -8 15 -10 15 -2 0
-4 -7 -4 -15z"/>
<path d="M1182 2112 c-7 -29 -12 -90 -12 -136 0 -126 -6 -136 -108 -186 -82
-40 -207 -83 -367 -126 -38 -10 -62 -20 -53 -22 10 -2 84 17 165 41 100 31
174 47 229 50 64 5 94 12 141 36 33 17 65 31 71 31 16 0 21 41 12 95 -4 28 -5
54 -3 59 3 4 -9 5 -26 1 l-32 -7 17 39 c39 88 47 119 40 147 -7 29 -7 29 -22
7 -19 -27 -32 -27 -36 2 -3 15 -8 4 -16 -31z"/>
<path d="M6221 1780 c0 -8 4 -22 9 -30 12 -18 12 -2 0 25 -6 13 -9 15 -9 5z"/>
<path d="M410 1770 c0 -5 14 -10 30 -10 17 0 30 5 30 10 0 6 -13 10 -30 10
-16 0 -30 -4 -30 -10z"/>
<path d="M1185 1604 c-27 -20 -71 -46 -97 -60 -52 -26 -62 -40 -24 -30 17 4
28 1 34 -10 14 -25 45 -9 88 44 21 26 44 53 51 60 14 15 17 32 6 31 -5 0 -30
-16 -58 -35z"/>
<path d="M6325 1573 c0 -29 1 -30 38 -18 12 4 30 6 40 5 17 -1 24 15 9 24 -5
3 -27 8 -48 12 -39 6 -40 5 -39 -23z"/>
<path d="M6420 1535 c-10 -12 -10 -19 -2 -27 7 -7 12 -20 12 -30 0 -21 9 -22
33 -3 11 7 25 11 33 8 19 -7 18 12 -2 42 -18 28 -55 33 -74 10z"/>
<path d="M6293 1265 c-7 -8 -13 -18 -13 -24 0 -12 29 -24 59 -25 13 -1 26 -5
28 -11 2 -6 -15 -10 -40 -9 -23 0 -45 -4 -49 -10 -9 -14 2 -37 15 -29 6 4 8 0
4 -9 -4 -11 5 -21 29 -34 19 -10 34 -22 34 -27 0 -11 53 -77 63 -77 4 0 7 9 7
21 0 16 4 19 21 14 33 -11 65 2 78 31 6 15 8 30 4 34 -4 4 -35 28 -68 53 -33
25 -78 62 -100 82 -44 38 -54 41 -72 20z m115 -115 c24 -20 22 -40 -4 -40 -8
0 -14 6 -14 14 0 8 -13 17 -30 21 -16 4 -30 11 -30 16 0 16 54 9 78 -11z"/>
<path d="M1163 1166 c-13 -41 -23 -85 -22 -98 0 -13 6 0 14 27 7 28 20 67 29
87 17 41 20 58 9 58 -5 0 -18 -34 -30 -74z"/>
<path d="M7005 1200 c-3 -5 -1 -10 4 -10 6 0 11 5 11 10 0 6 -2 10 -4 10 -3 0
-8 -4 -11 -10z"/>
<path d="M6955 1160 c-3 -5 -1 -10 4 -10 6 0 11 5 11 10 0 6 -2 10 -4 10 -3 0
-8 -4 -11 -10z"/>
<path d="M6675 1063 c15 -15 127 -35 138 -24 5 5 -16 11 -50 15 -32 4 -67 10
-78 13 -13 3 -17 2 -10 -4z"/>
<path d="M6080 1005 c-16 -19 -1 -19 24 0 16 12 17 15 4 15 -8 0 -21 -7 -28
-15z"/>
<path d="M5945 849 c-10 -15 1 -23 20 -15 9 3 13 10 10 16 -8 13 -22 13 -30
-1z"/>
<path d="M1570 829 c61 -10 194 -10 160 1 -14 4 -65 8 -115 8 -76 0 -83 -2
-45 -9z"/>
<path d="M1778 813 c7 -3 16 -2 19 1 4 3 -2 6 -13 5 -11 0 -14 -3 -6 -6z"/>
<path d="M1510 791 c0 -10 24 -21 44 -21 7 0 13 7 13 15 0 10 -10 15 -29 15
-15 0 -28 -4 -28 -9z"/>
<path d="M5775 770 c-3 -6 0 -13 9 -16 22 -8 59 -1 64 14 5 15 -64 17 -73 2z"/>
<path d="M5385 730 c3 -5 8 -10 11 -10 2 0 4 5 4 10 0 6 -5 10 -11 10 -5 0 -7
-4 -4 -10z"/>
<path d="M5418 733 c6 -2 18 -2 25 0 6 3 1 5 -13 5 -14 0 -19 -2 -12 -5z"/>
<path d="M4385 710 c-3 -6 1 -7 9 -4 18 7 21 14 7 14 -6 0 -13 -4 -16 -10z"/>
<path d="M5045 710 l-40 -7 47 -2 c26 0 50 4 53 9 7 11 1 11 -60 0z"/>
<path d="M2155 701 c-61 -5 -66 -7 -36 -13 38 -9 111 0 111 13 0 5 -1 8 -2 7
-2 -1 -34 -4 -73 -7z"/>
<path d="M2248 703 c7 -3 16 -2 19 1 4 3 -2 6 -13 5 -11 0 -14 -3 -6 -6z"/>
<path d="M4308 703 c12 -2 32 -2 45 0 12 2 2 4 -23 4 -25 0 -35 -2 -22 -4z"/>
<path d="M1344 471 c1 -34 26 -58 26 -26 0 9 -4 14 -9 10 -5 -3 -12 7 -14 22
-4 22 -5 21 -3 -6z"/>
</g>
</svg>
