<?xml version="1.0" standalone="no"?>
<!DOCTYPE svg PUBLIC "-//W3C//DTD SVG 20010904//EN"
 "http://www.w3.org/TR/2001/REC-SVG-20010904/DTD/svg10.dtd">
<svg version="1.0" xmlns="http://www.w3.org/2000/svg"
 width="740.000000pt" height="1044.000000pt" viewBox="0 0 740.000000 1044.000000"
 preserveAspectRatio="xMidYMid meet">
<metadata>
Created by potrace 1.16, written by Peter Selinger 2001-2019
</metadata>
<g transform="translate(0.000000,1044.000000) scale(0.100000,-0.100000)"
fill="#000000" stroke="none">
<path d="M3450 10320 c-63 -11 -158 -24 -210 -30 -329 -37 -447 -54 -620 -91
-303 -65 -515 -142 -608 -224 -71 -62 -78 -85 -72 -250 2 -41 -7 -98 -28 -180
-34 -129 -62 -319 -62 -415 0 -42 -9 -80 -31 -136 -26 -66 -30 -86 -25 -130
l6 -53 -127 -40 c-71 -22 -146 -44 -168 -49 -22 -5 -96 -26 -165 -47 -437
-130 -488 -153 -616 -280 -103 -103 -167 -199 -262 -393 l-76 -157 -7 -115
c-4 -63 -19 -196 -32 -295 -43 -303 -47 -406 -47 -1279 0 -1329 -26 -2043
-121 -3416 -39 -559 -9 -817 111 -953 18 -21 46 -45 63 -53 l29 -16 -36 -37
c-40 -41 -66 -109 -66 -172 0 -39 16 -63 50 -74 22 -7 26 -26 9 -54 -16 -25
-3 -70 24 -81 12 -6 29 -14 37 -19 8 -5 32 -17 54 -27 21 -11 45 -29 53 -41
39 -59 71 -355 49 -460 l-9 -43 39 -16 c69 -29 157 -38 232 -25 37 7 119 14
182 15 130 3 200 23 200 58 0 10 -11 64 -25 120 -26 103 -31 173 -16 196 6 11
16 8 45 -12 33 -22 51 -42 113 -126 10 -12 13 -92 13 -309 l1 -292 35 -38 c53
-60 112 -79 323 -108 l186 -25 900 7 c871 6 1130 11 1147 21 16 10 699 26
1243 29 573 4 631 6 730 31 117 30 153 63 183 167 l22 74 -19 89 c-18 81 -41
271 -41 332 0 16 22 47 70 96 54 56 74 85 90 131 11 32 20 69 20 82 0 37 27
27 40 -14 7 -21 31 -56 55 -78 37 -35 44 -48 54 -106 15 -87 14 -134 -4 -193
-8 -27 -15 -87 -15 -132 0 -73 2 -85 20 -94 11 -6 24 -8 29 -5 5 3 146 1 313
-4 260 -9 305 -8 318 4 12 13 12 25 -3 97 -20 95 -21 151 -7 229 6 30 11 91
13 134 l2 80 40 1 c119 2 154 39 175 182 12 80 12 83 -14 136 -14 29 -41 73
-60 96 l-34 43 44 90 c35 71 44 101 44 142 0 76 -28 342 -46 435 -13 69 -13
111 -4 280 11 203 7 306 -25 765 -8 116 -19 305 -25 420 -6 116 -22 361 -35
545 -36 489 -80 1213 -120 1975 -54 1020 -59 1088 -111 1425 -15 91 -30 194
-34 229 -5 38 -17 75 -29 92 -11 15 -48 74 -82 131 -34 57 -78 123 -98 148
-172 217 -260 273 -558 356 -70 20 -168 49 -218 65 -49 16 -147 44 -217 63
-69 19 -142 42 -162 50 -34 14 -36 18 -36 61 0 25 -7 62 -15 82 -11 27 -14 55
-9 113 4 45 2 105 -5 146 -17 98 -78 342 -108 432 -16 49 -28 115 -33 182 -5
72 -14 119 -28 150 -36 79 -130 139 -254 165 -528 109 -883 172 -1138 201
-124 14 -282 12 -390 -6z m278 -58 c9 1 23 -1 30 -6 9 -5 20 -3 30 7 14 15 18
14 45 -5 23 -17 31 -18 37 -8 6 10 12 11 22 3 7 -6 40 -16 73 -22 33 -6 80
-16 105 -22 25 -5 55 -10 68 -10 12 1 25 -6 28 -14 6 -15 35 -20 48 -8 10 11
36 12 36 2 0 -5 10 -9 23 -9 41 0 67 -12 73 -34 3 -13 14 -22 29 -23 51 -4 56
-7 61 -30 6 -20 11 -23 35 -18 22 5 31 2 41 -14 14 -23 48 -29 48 -8 0 9 2 9
9 -1 4 -8 14 -13 22 -12 34 5 41 0 35 -25 -5 -18 -2 -25 8 -25 8 0 17 -4 21
-9 3 -5 -10 -9 -29 -8 -19 1 -31 6 -28 11 3 5 -5 6 -18 3 -17 -4 -29 0 -41 14
-17 20 -46 18 -34 -2 4 -5 1 -9 -4 -9 -6 0 -11 7 -11 15 0 19 -7 19 -27 -1
-10 -9 -18 -12 -22 -5 -3 5 -35 17 -71 26 -36 9 -80 20 -99 25 -22 5 -42 5
-53 -1 -14 -7 -18 -6 -16 3 2 8 -7 13 -22 13 -14 0 -31 6 -38 13 -7 6 -23 12
-36 12 -12 0 -28 -6 -35 -12 -10 -11 -14 -10 -22 5 -6 9 -14 17 -19 17 -6 0
-10 -8 -10 -17 -1 -16 -2 -16 -16 2 -12 16 -18 17 -33 8 -15 -9 -25 -7 -51 9
-24 14 -35 16 -40 7 -6 -8 -26 -9 -76 -3 -38 5 -85 7 -105 6 -30 -3 -38 1 -44
20 -6 19 -8 20 -12 6 -3 -14 -15 -18 -49 -18 -25 0 -55 -5 -67 -12 -12 -6 -44
-10 -70 -9 -27 1 -55 -3 -64 -10 -12 -10 -16 -10 -23 0 -4 8 -13 10 -19 7 -6
-4 -9 -12 -6 -17 8 -11 -1 -14 -100 -29 -109 -16 -176 -19 -169 -9 9 15 -16
10 -32 -6 -9 -8 -29 -15 -45 -15 -16 0 -29 -3 -29 -7 0 -5 -15 -8 -32 -8 -18
0 -52 -4 -75 -8 -36 -6 -41 -5 -37 8 4 8 1 15 -5 15 -6 0 -11 -7 -11 -15 0
-23 -49 -31 -64 -10 -13 18 -42 12 -31 -6 4 -5 1 -9 -6 -9 -6 0 -9 8 -6 20 4
16 2 18 -13 10 -13 -7 -21 -7 -25 0 -4 6 -11 7 -17 4 -6 -4 -6 -10 1 -17 14
-14 14 -27 0 -27 -5 0 -8 4 -4 9 7 13 -27 31 -59 31 -27 0 -36 23 -14 36 8 5
6 10 -8 15 -16 6 -16 8 -2 8 9 1 24 8 33 18 13 12 19 13 25 4 5 -9 14 -6 34
12 16 15 34 23 45 20 10 -3 22 0 25 6 4 6 22 11 41 11 44 0 69 25 61 61 -3 16
-1 31 4 34 6 4 10 -9 10 -29 0 -25 4 -36 15 -36 8 0 15 4 15 8 0 5 28 8 62 7
35 -1 74 4 87 11 20 10 27 11 33 1 6 -9 8 -9 8 1 0 6 11 12 25 12 14 0 25 4
25 10 0 6 9 6 25 0 17 -6 34 -5 57 4 18 8 45 12 60 11 17 -2 29 2 32 12 4 9
13 13 23 9 9 -4 41 -2 72 5 40 8 56 8 59 0 5 -16 22 -13 22 4 0 20 70 16 87
-5 10 -13 14 -12 31 4 13 11 28 15 41 11 11 -3 28 -2 38 4 11 6 24 6 36 0 10
-6 25 -9 35 -7z m-253 -512 c1 -11 -2 -20 -7 -20 -19 0 -5 -16 28 -33 34 -17
38 -17 55 -1 16 15 19 15 19 2 0 -10 -17 -20 -46 -28 -43 -12 -48 -12 -60 5
-8 10 -14 25 -14 32 0 14 -22 18 -33 6 -12 -12 -59 -9 -64 3 -9 23 -35 3 -29
-21 6 -24 -19 -44 -28 -22 -3 9 -8 8 -15 -3 -10 -13 -11 -13 -11 0 -1 12 -3
11 -11 -3 -6 -9 -7 -27 -3 -40 6 -19 5 -20 -10 -8 -19 16 -21 37 -3 45 8 3 7
8 -6 16 -9 6 -15 16 -11 22 4 6 10 5 15 -3 6 -9 12 -10 17 -4 11 16 34 17 43
3 6 -9 9 -5 9 12 1 43 13 51 83 53 37 1 67 6 67 11 0 18 14 -4 15 -24z m737
-37 c22 -1 47 -8 56 -16 10 -8 58 -27 107 -42 50 -15 95 -30 100 -34 6 -4 29
-14 53 -21 24 -7 47 -21 53 -31 18 -35 -40 -33 -154 5 -58 20 -112 36 -120 36
-23 0 -42 27 -28 43 14 17 4 27 -27 27 -16 0 -26 -7 -29 -21 -5 -19 -8 -20
-17 -7 -6 8 -19 17 -28 21 -12 4 -15 12 -11 23 5 14 2 16 -14 12 -20 -5 -21
-3 -14 31 1 2 8 -3 18 -10 9 -8 34 -15 55 -16z m-1105 -3 c6 -22 28 -25 67
-10 19 7 24 6 20 -4 -3 -7 2 -20 10 -29 14 -13 14 -16 1 -27 -8 -7 -15 -9 -15
-5 0 4 -11 -4 -25 -18 -22 -21 -33 -24 -75 -21 -28 2 -50 -1 -50 -6 0 -6 -13
-10 -30 -10 -16 0 -30 4 -30 9 0 22 -34 20 -55 -3 -21 -23 -24 -23 -39 -8 -16
16 -18 16 -27 0 -6 -10 -21 -18 -34 -18 -13 0 -26 -4 -30 -10 -3 -5 -11 -7
-18 -5 -7 2 -24 6 -39 9 -16 4 -28 11 -28 16 0 18 39 50 60 50 11 0 23 6 25
13 7 18 76 12 91 -7 15 -22 22 -20 26 7 2 15 9 21 21 19 10 -2 25 2 33 9 8 6
17 9 21 5 3 -3 15 2 25 11 19 17 19 16 13 -12 -4 -17 -3 -25 2 -19 4 7 19 14
33 15 14 2 25 11 25 19 0 8 5 18 10 23 6 4 4 11 -5 17 -11 7 -12 10 -2 10 8 0
16 -9 19 -20z m467 -210 c22 -8 26 -16 26 -48 0 -31 -4 -38 -20 -38 -13 0 -21
9 -25 27 -9 40 -64 54 -132 31 -55 -18 -63 -30 -38 -56 14 -14 12 -15 -20 -11
-33 5 -35 4 -21 -11 9 -8 16 -16 16 -17 0 -8 -141 -4 -146 4 -4 6 -11 6 -20
-2 -10 -8 -14 -8 -14 0 0 6 -10 11 -22 11 -39 0 -68 12 -68 26 0 8 -7 14 -15
14 -8 0 -15 -3 -15 -7 0 -15 -55 -11 -73 5 -10 9 -35 18 -55 19 -20 1 -59 6
-87 11 -48 9 -47 9 35 11 46 0 168 8 270 16 320 26 390 28 424 15z m27 -240
c10 -6 19 -20 19 -32 0 -12 -2 -19 -6 -16 -3 3 -26 0 -51 -8 -25 -8 -50 -11
-55 -8 -5 3 -17 3 -26 -1 -24 -10 -113 -12 -119 -2 -2 4 -23 7 -46 8 -23 0
-58 6 -77 14 -34 12 -34 13 -10 18 39 9 189 27 250 30 30 2 65 4 78 5 13 1 32
-3 43 -8z m-716 -165 c27 -11 32 -12 53 -14 11 0 28 -9 39 -19 l21 -18 -24
-11 c-27 -12 -47 3 -23 18 7 4 10 11 7 15 -11 10 -40 -4 -33 -16 3 -5 0 -10
-8 -10 -8 0 -23 -12 -32 -26 -17 -26 -17 -27 4 -21 15 3 24 -1 31 -14 6 -10
16 -19 21 -19 15 0 91 -61 85 -68 -3 -3 11 -13 32 -23 69 -32 75 -40 67 -93
-6 -38 -11 -46 -24 -41 -9 4 -54 9 -101 11 -47 2 -104 7 -128 10 -48 6 -85 38
-76 66 3 10 1 18 -5 18 -6 0 -8 7 -5 15 4 8 -12 31 -39 58 -29 28 -43 48 -38
56 6 10 10 8 15 -4 5 -13 9 -15 20 -6 7 6 21 9 30 5 11 -4 16 -1 16 11 0 9 5
13 10 10 6 -3 10 -2 10 4 0 5 -4 12 -10 16 -13 8 -1 35 16 35 8 0 14 -7 14
-15 0 -18 5 -18 30 -5 21 11 16 42 -5 34 -7 -3 -16 -1 -19 5 -8 12 12 53 22
48 4 -2 16 -8 27 -12z m1619 -92 c8 3 17 0 20 -8 3 -8 16 -12 33 -10 15 1 33
1 40 -2 16 -6 17 -23 2 -23 -6 0 -22 -13 -36 -30 -29 -35 -53 -39 -60 -9 -3
11 -11 18 -19 15 -7 -3 -30 -8 -51 -12 -21 -4 -54 -14 -73 -22 -19 -9 -37 -16
-40 -17 -3 0 -21 -6 -40 -12 -71 -23 -100 -26 -100 -9 0 9 8 16 20 16 12 0 20
7 20 16 0 11 -6 15 -18 12 -13 -4 -18 0 -17 11 3 41 35 57 35 17 0 -14 10 -32
22 -40 31 -22 38 -20 38 9 0 18 4 23 15 19 8 -4 15 -1 15 5 0 6 14 11 31 11
24 0 30 4 25 15 -5 14 6 19 41 18 6 0 9 6 6 13 -3 8 1 14 11 14 9 0 19 7 23
15 5 14 8 14 24 -1 10 -9 25 -14 33 -11z m-580 -101 c7 -11 -23 -54 -33 -48
-20 13 -88 -22 -239 -122 -77 -50 -110 -78 -104 -84 7 -7 26 0 59 21 67 43
221 117 263 126 31 7 33 6 21 -9 -10 -11 -10 -16 -2 -16 17 0 9 -51 -9 -61 -8
-4 -42 -15 -75 -25 -33 -9 -63 -22 -67 -28 -5 -7 -8 -4 -8 7 0 12 -4 16 -12
10 -7 -4 -40 -17 -73 -28 -69 -24 -82 -50 -25 -49 19 0 43 4 53 8 13 6 16 5
11 -8 -8 -21 32 -22 44 0 11 20 83 44 111 37 22 -6 22 -6 1 -20 -23 -17 -25
-29 -6 -48 7 -8 13 -24 12 -37 -1 -21 -5 -23 -56 -22 -30 0 -89 6 -130 13 -41
7 -93 15 -115 17 -22 2 -46 6 -52 9 -7 2 -13 0 -13 -5 0 -6 -7 -10 -15 -10 -8
0 -15 6 -15 14 0 8 -8 17 -17 19 -14 4 -12 5 5 6 23 1 32 31 10 31 -9 0 -10 2
-2 8 6 4 14 16 18 27 8 24 159 137 199 148 15 4 27 12 27 18 0 6 5 7 10 4 6
-3 22 3 36 14 15 12 31 21 37 21 14 0 116 51 123 61 7 11 21 12 28 1z m-1601
-134 c15 -5 27 -14 27 -19 0 -5 10 -9 22 -9 27 0 104 -36 139 -65 36 -29 260
-101 384 -123 80 -13 92 -18 61 -20 -22 -2 -60 2 -84 8 -24 6 -72 13 -105 16
-33 3 -72 10 -86 16 -14 6 -32 12 -39 12 -7 1 -16 7 -21 14 -4 7 -12 12 -17
11 -5 -1 -22 3 -37 9 -16 7 -34 12 -42 12 -8 0 -16 4 -20 10 -3 5 -12 7 -20 3
-8 -3 -15 0 -15 6 0 6 -9 11 -20 11 -11 0 -20 7 -20 15 0 9 -6 12 -15 9 -8 -4
-15 -1 -15 5 0 6 -9 11 -20 11 -11 0 -20 5 -20 10 0 6 -6 10 -14 10 -8 0 -17
7 -20 16 -3 9 -13 14 -20 11 -8 -3 -17 1 -20 9 -3 9 -10 12 -16 9 -5 -3 -10 1
-10 10 0 12 5 15 18 10 9 -4 29 -12 45 -17z m-1503 -1360 c0 -4 -4 -8 -10 -8
-5 0 -10 -5 -10 -11 0 -5 4 -8 9 -4 5 3 12 1 16 -5 4 -6 9 -8 13 -6 4 2 13 -2
20 -10 7 -8 10 -14 7 -14 -4 0 1 -7 9 -16 9 -8 21 -12 28 -8 7 5 9 2 6 -7 -15
-41 -18 -58 -9 -63 6 -4 8 -13 5 -21 -4 -8 1 -18 10 -21 19 -7 21 -34 3 -34
-8 0 -49 39 -93 87 -43 47 -85 92 -91 99 -17 17 -16 27 2 20 10 -3 15 1 15 12
0 13 9 17 35 18 19 0 35 -3 35 -8z"/>
</g>
</svg>
